<mxfile host="app.diagrams.net" agent="Mozilla/5.0 (Windows NT 10.0; Win64; x64) AppleWebKit/537.36 (KHTML, like Gecko) Chrome/140.0.0.0 Safari/537.36" version="28.2.5">
  <diagram id="7gcUSTIZ7YSJ5vT40chW" name="Page-1">
    <mxGraphModel dx="1426" dy="751" grid="1" gridSize="10" guides="1" tooltips="1" connect="1" arrows="1" fold="1" page="1" pageScale="1" pageWidth="1169" pageHeight="827" background="#ffffff" math="0" shadow="0">
      <root>
        <mxCell id="0" />
        <mxCell id="1" parent="0" />
        <mxCell id="HdWS5ta7NdpachvVP4BI-1" value="" style="rounded=0;whiteSpace=wrap;html=1;dashed=1;dashPattern=1 2;fillColor=none;" parent="1" vertex="1">
          <mxGeometry x="120" y="160" width="120" height="360" as="geometry" />
        </mxCell>
        <mxCell id="HdWS5ta7NdpachvVP4BI-2" value="" style="rounded=0;whiteSpace=wrap;html=1;dashed=1;dashPattern=1 2;fillColor=none;" parent="1" vertex="1">
          <mxGeometry x="280" y="160" width="520" height="360" as="geometry" />
        </mxCell>
        <mxCell id="HdWS5ta7NdpachvVP4BI-3" value="" style="rounded=0;whiteSpace=wrap;html=1;dashed=1;dashPattern=1 2;fillColor=none;" parent="1" vertex="1">
          <mxGeometry x="840" y="160" width="120" height="360" as="geometry" />
        </mxCell>
        <mxCell id="HdWS5ta7NdpachvVP4BI-4" value="Sources" style="text;html=1;align=center;verticalAlign=middle;whiteSpace=wrap;rounded=0;fillColor=default;" parent="1" vertex="1">
          <mxGeometry x="150" y="145" width="60" height="30" as="geometry" />
        </mxCell>
        <mxCell id="HdWS5ta7NdpachvVP4BI-5" value="Data Lakehouse" style="text;html=1;align=center;verticalAlign=middle;whiteSpace=wrap;rounded=0;fillColor=default;" parent="1" vertex="1">
          <mxGeometry x="500" y="145" width="120" height="30" as="geometry" />
        </mxCell>
        <mxCell id="HdWS5ta7NdpachvVP4BI-6" value="Consume" style="text;html=1;align=center;verticalAlign=middle;whiteSpace=wrap;rounded=0;fillColor=default;" parent="1" vertex="1">
          <mxGeometry x="860" y="150" width="80" height="20" as="geometry" />
        </mxCell>
        <mxCell id="HdWS5ta7NdpachvVP4BI-7" value="Bronze Layer" style="rounded=0;whiteSpace=wrap;html=1;fillColor=#ffe6cc;strokeColor=#d79b00;" parent="1" vertex="1">
          <mxGeometry x="310" y="180" width="120" height="30" as="geometry" />
        </mxCell>
        <mxCell id="HdWS5ta7NdpachvVP4BI-8" value="" style="rounded=0;whiteSpace=wrap;html=1;fillColor=none;strokeColor=#d79b00;" parent="1" vertex="1">
          <mxGeometry x="310" y="220" width="120" height="280" as="geometry" />
        </mxCell>
        <mxCell id="HdWS5ta7NdpachvVP4BI-9" value="Silver Layer" style="rounded=0;whiteSpace=wrap;html=1;fillColor=#f5f5f5;strokeColor=#666666;gradientColor=#b3b3b3;" parent="1" vertex="1">
          <mxGeometry x="480" y="180" width="120" height="30" as="geometry" />
        </mxCell>
        <mxCell id="HdWS5ta7NdpachvVP4BI-10" value="" style="rounded=0;whiteSpace=wrap;html=1;fillColor=none;strokeColor=#666666;fontColor=#333333;" parent="1" vertex="1">
          <mxGeometry x="480" y="220" width="120" height="280" as="geometry" />
        </mxCell>
        <mxCell id="HdWS5ta7NdpachvVP4BI-11" value="Gold Layer" style="rounded=0;whiteSpace=wrap;html=1;fillColor=#fff2cc;strokeColor=#d6b656;gradientColor=#ffd966;" parent="1" vertex="1">
          <mxGeometry x="650" y="180" width="120" height="30" as="geometry" />
        </mxCell>
        <mxCell id="HdWS5ta7NdpachvVP4BI-12" value="" style="rounded=0;whiteSpace=wrap;html=1;fillColor=none;strokeColor=#d6b656;" parent="1" vertex="1">
          <mxGeometry x="650" y="220" width="120" height="280" as="geometry" />
        </mxCell>
        <mxCell id="HdWS5ta7NdpachvVP4BI-13" value="&lt;b&gt;&lt;font style=&quot;font-size: 18px;&quot;&gt;HIGH LEVEL ARCHITECTURE&lt;/font&gt;&lt;/b&gt;" style="text;html=1;align=center;verticalAlign=middle;whiteSpace=wrap;rounded=0;fillColor=#d5e8d4;strokeColor=#82b366;" parent="1" vertex="1">
          <mxGeometry x="120" y="90" width="840" height="30" as="geometry" />
        </mxCell>
        <mxCell id="HdWS5ta7NdpachvVP4BI-14" value="" style="image;aspect=fixed;html=1;points=[];align=center;fontSize=12;image=img/lib/azure2/general/Folder_Blank.svg;" parent="1" vertex="1">
          <mxGeometry x="158.26999999999998" y="250.01" width="48.48" height="39.35" as="geometry" />
        </mxCell>
        <mxCell id="HdWS5ta7NdpachvVP4BI-15" value="" style="image;aspect=fixed;html=1;points=[];align=center;fontSize=12;image=img/lib/azure2/general/File.svg;" parent="1" vertex="1">
          <mxGeometry x="185.66" y="274.68" width="24.34" height="30" as="geometry" />
        </mxCell>
        <mxCell id="HdWS5ta7NdpachvVP4BI-16" value="" style="shape=singleArrow;whiteSpace=wrap;html=1;fillColor=#dae8fc;strokeColor=#6c8ebf;" parent="1" vertex="1">
          <mxGeometry x="230" y="304.68" width="60" height="40.32" as="geometry" />
        </mxCell>
        <mxCell id="HdWS5ta7NdpachvVP4BI-17" value="" style="shape=singleArrow;whiteSpace=wrap;html=1;fillColor=#dae8fc;strokeColor=#6c8ebf;" parent="1" vertex="1">
          <mxGeometry x="426" y="304.68" width="60" height="40.32" as="geometry" />
        </mxCell>
        <mxCell id="HdWS5ta7NdpachvVP4BI-19" value="" style="shape=singleArrow;whiteSpace=wrap;html=1;fillColor=#dae8fc;strokeColor=#6c8ebf;" parent="1" vertex="1">
          <mxGeometry x="596" y="304.68" width="60" height="40.32" as="geometry" />
        </mxCell>
        <mxCell id="HdWS5ta7NdpachvVP4BI-20" value="" style="shape=singleArrow;whiteSpace=wrap;html=1;fillColor=#dae8fc;strokeColor=#6c8ebf;" parent="1" vertex="1">
          <mxGeometry x="790" y="304.68" width="60" height="40.32" as="geometry" />
        </mxCell>
        <mxCell id="HdWS5ta7NdpachvVP4BI-23" value="" style="html=1;verticalLabelPosition=bottom;align=center;labelBackgroundColor=#ffffff;verticalAlign=top;strokeWidth=2;strokeColor=#d79b00;shadow=0;dashed=0;shape=mxgraph.ios7.icons.data;fillColor=#ffe6cc;" parent="1" vertex="1">
          <mxGeometry x="340" y="245.58" width="60" height="64.42" as="geometry" />
        </mxCell>
        <mxCell id="HdWS5ta7NdpachvVP4BI-24" value="" style="html=1;verticalLabelPosition=bottom;align=center;labelBackgroundColor=#ffffff;verticalAlign=top;strokeWidth=2;strokeColor=#666666;shadow=0;dashed=0;shape=mxgraph.ios7.icons.data;fillColor=#f5f5f5;gradientColor=#b3b3b3;" parent="1" vertex="1">
          <mxGeometry x="510" y="245.57999999999998" width="60" height="64.42" as="geometry" />
        </mxCell>
        <mxCell id="HdWS5ta7NdpachvVP4BI-25" value="" style="html=1;verticalLabelPosition=bottom;align=center;labelBackgroundColor=#ffffff;verticalAlign=top;strokeWidth=2;strokeColor=#d6b656;shadow=0;dashed=0;shape=mxgraph.ios7.icons.data;fillColor=#fff2cc;gradientColor=#ffd966;" parent="1" vertex="1">
          <mxGeometry x="680" y="245.57999999999998" width="60" height="64.42" as="geometry" />
        </mxCell>
        <mxCell id="HdWS5ta7NdpachvVP4BI-26" value="" style="image;aspect=fixed;html=1;points=[];align=center;fontSize=12;image=img/lib/azure2/power_platform/PowerBI.svg;" parent="1" vertex="1">
          <mxGeometry x="881.25" y="210" width="37.5" height="50" as="geometry" />
        </mxCell>
        <mxCell id="HdWS5ta7NdpachvVP4BI-28" value="" style="verticalLabelPosition=bottom;shadow=0;dashed=0;align=center;html=1;verticalAlign=top;strokeWidth=1;shape=mxgraph.mockup.markup.line;strokeColor=#999999;" parent="1" vertex="1">
          <mxGeometry x="130" y="350" width="100" height="20" as="geometry" />
        </mxCell>
        <mxCell id="HdWS5ta7NdpachvVP4BI-29" value="" style="verticalLabelPosition=bottom;shadow=0;dashed=0;align=center;html=1;verticalAlign=top;strokeWidth=1;shape=mxgraph.mockup.markup.line;strokeColor=#999999;" parent="1" vertex="1">
          <mxGeometry x="320" y="350" width="100" height="20" as="geometry" />
        </mxCell>
        <mxCell id="HdWS5ta7NdpachvVP4BI-30" value="" style="verticalLabelPosition=bottom;shadow=0;dashed=0;align=center;html=1;verticalAlign=top;strokeWidth=1;shape=mxgraph.mockup.markup.line;strokeColor=#999999;" parent="1" vertex="1">
          <mxGeometry x="490" y="350" width="100" height="20" as="geometry" />
        </mxCell>
        <mxCell id="HdWS5ta7NdpachvVP4BI-31" value="" style="verticalLabelPosition=bottom;shadow=0;dashed=0;align=center;html=1;verticalAlign=top;strokeWidth=1;shape=mxgraph.mockup.markup.line;strokeColor=#999999;" parent="1" vertex="1">
          <mxGeometry x="660" y="350" width="100" height="20" as="geometry" />
        </mxCell>
        <mxCell id="HdWS5ta7NdpachvVP4BI-33" value="Raw" style="text;html=1;align=center;verticalAlign=middle;whiteSpace=wrap;rounded=0;" parent="1" vertex="1">
          <mxGeometry x="340" y="315" width="60" height="30" as="geometry" />
        </mxCell>
        <mxCell id="HdWS5ta7NdpachvVP4BI-34" value="Enriched" style="text;html=1;align=center;verticalAlign=middle;whiteSpace=wrap;rounded=0;" parent="1" vertex="1">
          <mxGeometry x="510" y="315" width="60" height="30" as="geometry" />
        </mxCell>
        <mxCell id="HdWS5ta7NdpachvVP4BI-35" value="Curated" style="text;html=1;align=center;verticalAlign=middle;whiteSpace=wrap;rounded=0;" parent="1" vertex="1">
          <mxGeometry x="680" y="315" width="60" height="30" as="geometry" />
        </mxCell>
        <mxCell id="HdWS5ta7NdpachvVP4BI-37" value="BI &amp;amp; Reporting" style="text;html=1;align=center;verticalAlign=middle;whiteSpace=wrap;rounded=0;" parent="1" vertex="1">
          <mxGeometry x="880.09" y="263.63" width="49.91" height="28.32" as="geometry" />
        </mxCell>
        <mxCell id="HdWS5ta7NdpachvVP4BI-38" value="Source" style="text;html=1;align=center;verticalAlign=middle;whiteSpace=wrap;rounded=0;" parent="1" vertex="1">
          <mxGeometry x="158.26999999999998" y="310" width="60" height="30" as="geometry" />
        </mxCell>
        <mxCell id="HdWS5ta7NdpachvVP4BI-39" value="&lt;font style=&quot;font-size: 11px;&quot;&gt;Object type: CSV files&lt;/font&gt;" style="text;html=1;align=left;verticalAlign=middle;whiteSpace=wrap;rounded=0;" parent="1" vertex="1">
          <mxGeometry x="130" y="380" width="100" height="30" as="geometry" />
        </mxCell>
        <mxCell id="HdWS5ta7NdpachvVP4BI-40" value="&lt;font style=&quot;font-size: 11px;&quot;&gt;&lt;b&gt;Object type: &lt;/b&gt;Table&lt;/font&gt;&lt;div&gt;&lt;font style=&quot;font-size: 11px;&quot;&gt;&lt;br&gt;&lt;/font&gt;&lt;/div&gt;&lt;div&gt;&lt;font style=&quot;font-size: 11px;&quot;&gt;&lt;b&gt;Load:&amp;nbsp;&lt;/b&gt;&lt;/font&gt;&lt;span style=&quot;background-color: transparent; color: light-dark(rgb(0, 0, 0), rgb(255, 255, 255)); font-size: 11px;&quot;&gt;Batch /&amp;nbsp;&lt;/span&gt;&lt;span style=&quot;background-color: transparent; color: light-dark(rgb(0, 0, 0), rgb(255, 255, 255)); font-size: 11px;&quot;&gt;Full&lt;/span&gt;&lt;/div&gt;&lt;div&gt;&lt;span style=&quot;font-size: 11px; background-color: transparent; color: light-dark(rgb(0, 0, 0), rgb(255, 255, 255));&quot;&gt;/ Incremental&lt;/span&gt;&lt;/div&gt;&lt;div&gt;&lt;span style=&quot;font-size: 11px; background-color: transparent; color: light-dark(rgb(0, 0, 0), rgb(255, 255, 255));&quot;&gt;&lt;br&gt;&lt;/span&gt;&lt;/div&gt;&lt;div&gt;&lt;span style=&quot;font-size: 11px; background-color: transparent; color: light-dark(rgb(0, 0, 0), rgb(255, 255, 255));&quot;&gt;&lt;b&gt;Data Model: &lt;/b&gt;n/a&lt;/span&gt;&lt;/div&gt;" style="text;html=1;align=left;verticalAlign=middle;whiteSpace=wrap;rounded=0;" parent="1" vertex="1">
          <mxGeometry x="320" y="370" width="100" height="110" as="geometry" />
        </mxCell>
        <mxCell id="HdWS5ta7NdpachvVP4BI-41" value="&lt;font style=&quot;font-size: 11px;&quot;&gt;&lt;b&gt;Object type: &lt;/b&gt;Table&lt;/font&gt;&lt;div&gt;&lt;font style=&quot;font-size: 11px;&quot;&gt;&lt;br&gt;&lt;/font&gt;&lt;/div&gt;&lt;div&gt;&lt;font style=&quot;font-size: 11px;&quot;&gt;&lt;b&gt;Load:&amp;nbsp;&lt;/b&gt;&lt;/font&gt;&lt;span style=&quot;background-color: transparent; color: light-dark(rgb(0, 0, 0), rgb(255, 255, 255)); font-size: 11px;&quot;&gt;Batch /&amp;nbsp;&lt;/span&gt;&lt;span style=&quot;background-color: transparent; color: light-dark(rgb(0, 0, 0), rgb(255, 255, 255)); font-size: 11px;&quot;&gt;Full&lt;/span&gt;&lt;/div&gt;&lt;div&gt;&lt;span style=&quot;font-size: 11px; background-color: transparent; color: light-dark(rgb(0, 0, 0), rgb(255, 255, 255));&quot;&gt;/ Incremental&lt;/span&gt;&lt;/div&gt;&lt;div&gt;&lt;span style=&quot;font-size: 11px; background-color: transparent; color: light-dark(rgb(0, 0, 0), rgb(255, 255, 255));&quot;&gt;&lt;br&gt;&lt;/span&gt;&lt;/div&gt;&lt;div&gt;&lt;span style=&quot;font-size: 11px; background-color: transparent; color: light-dark(rgb(0, 0, 0), rgb(255, 255, 255));&quot;&gt;&lt;b&gt;Data Model: &lt;/b&gt;n/a&lt;/span&gt;&lt;/div&gt;" style="text;html=1;align=left;verticalAlign=middle;whiteSpace=wrap;rounded=0;" parent="1" vertex="1">
          <mxGeometry x="490" y="370" width="100" height="110" as="geometry" />
        </mxCell>
        <mxCell id="HdWS5ta7NdpachvVP4BI-42" value="&lt;font style=&quot;font-size: 11px;&quot;&gt;&lt;b&gt;Object type: &lt;/b&gt;Table&lt;/font&gt;&lt;div&gt;&lt;font style=&quot;font-size: 11px;&quot;&gt;&lt;br&gt;&lt;/font&gt;&lt;/div&gt;&lt;div&gt;&lt;font style=&quot;font-size: 11px;&quot;&gt;&lt;b&gt;Load:&amp;nbsp;&lt;/b&gt;&lt;/font&gt;&lt;span style=&quot;background-color: transparent; color: light-dark(rgb(0, 0, 0), rgb(255, 255, 255)); font-size: 11px;&quot;&gt;Batch /&amp;nbsp;&lt;/span&gt;&lt;span style=&quot;background-color: transparent; color: light-dark(rgb(0, 0, 0), rgb(255, 255, 255)); font-size: 11px;&quot;&gt;Full&lt;/span&gt;&lt;/div&gt;&lt;div&gt;&lt;span style=&quot;font-size: 11px; background-color: transparent; color: light-dark(rgb(0, 0, 0), rgb(255, 255, 255));&quot;&gt;/ Incremental&lt;/span&gt;&lt;/div&gt;&lt;div&gt;&lt;span style=&quot;font-size: 11px; background-color: transparent; color: light-dark(rgb(0, 0, 0), rgb(255, 255, 255));&quot;&gt;&lt;br&gt;&lt;/span&gt;&lt;/div&gt;&lt;div&gt;&lt;span style=&quot;font-size: 11px; background-color: transparent; color: light-dark(rgb(0, 0, 0), rgb(255, 255, 255));&quot;&gt;&lt;b&gt;Data Model: &lt;/b&gt;Star Schema&lt;/span&gt;&lt;/div&gt;" style="text;html=1;align=left;verticalAlign=middle;whiteSpace=wrap;rounded=0;" parent="1" vertex="1">
          <mxGeometry x="660" y="370" width="100" height="120" as="geometry" />
        </mxCell>
        <mxCell id="HdWS5ta7NdpachvVP4BI-43" value="" style="points=[];aspect=fixed;html=1;align=center;shadow=0;dashed=0;fillColor=#FF6A00;strokeColor=none;shape=mxgraph.alibaba_cloud.machine_learning;" parent="1" vertex="1">
          <mxGeometry x="880.09" y="319.96999999999997" width="39.81" height="40.05" as="geometry" />
        </mxCell>
        <mxCell id="HdWS5ta7NdpachvVP4BI-44" value="Machine Learning" style="text;html=1;align=center;verticalAlign=middle;whiteSpace=wrap;rounded=0;" parent="1" vertex="1">
          <mxGeometry x="876.04" y="363.02" width="53.96" height="26.98" as="geometry" />
        </mxCell>
        <mxCell id="ozBWooT8oFbHZ5zxdUVA-2" value="" style="sketch=0;html=1;aspect=fixed;strokeColor=none;shadow=0;fillColor=#3B8DF1;verticalAlign=top;labelPosition=center;verticalLabelPosition=bottom;shape=mxgraph.gcp2.search" vertex="1" parent="1">
          <mxGeometry x="881.25" y="413" width="39.58" height="39.98" as="geometry" />
        </mxCell>
        <mxCell id="ozBWooT8oFbHZ5zxdUVA-3" value="Ad-hoc Queries" style="text;html=1;align=center;verticalAlign=middle;whiteSpace=wrap;rounded=0;" vertex="1" parent="1">
          <mxGeometry x="873.02" y="456.02" width="53.96" height="26.98" as="geometry" />
        </mxCell>
      </root>
    </mxGraphModel>
  </diagram>
</mxfile>
